<svg xmlns="http://www.w3.org/2000/svg" viewBox="0 0 100 100"><defs><style>.cls-3{fill:#c7ebff}.cls-4{fill:#2c8cf4}</style></defs><g id="seleccionados_expandidos" data-name="seleccionados expandidos"><path d="M43.77 90.87a1.49 1.49 0 0 1-.18-.61c-21.53-6-29.52-20.14-29.28-30 .1-4.11 1.43-10.42 3.15-17.55a17.94 17.94 0 0 1-2.29-11.82 21.59 21.59 0 0 1 5.93-12.66 16.75 16.75 0 0 1 2.73-2.12C25.15 9.61 26 3.82 25.59 0H0v100h45.16c.25-2.24.33-6.05-1.39-9.13z" fill="#ffeeb6"/><path d="M95 84.48c-.57.29-1.15.57-1.74.83a1.5 1.5 0 0 1-.32 2.47c-.47.23-11.07 5.38-27.43 5.38h-2.78a87.23 87.23 0 0 1-15.5-1.94 20 20 0 0 1 1 8.82h40.72a54.88 54.88 0 0 0 4.62-9.94A36.64 36.64 0 0 0 95 84.48z" fill="#92cdfa"/><path class="cls-3" d="M27.22 14.44a18.32 18.32 0 0 1 4-.93 1.49 1.49 0 0 1-.15-1.51c2.88-6.11 6.49-9 10.78-8.54 6.56.68 11.91 9.3 12.75 12.83a1.5 1.5 0 0 1-1.11 1.81 1.52 1.52 0 0 1-.35 0 1.5 1.5 0 0 1-1.47-1.1C51 14.21 46.24 7 41.53 6.47c-2.87-.3-5.48 2-7.75 6.83v.08c8.3.1 16.47 5.37 17.84 13.74 2.89-1.55 7-2.13 12.19 2.28a20.66 20.66 0 0 1 7.11-10.07c5.05-3.67 12-3.88 17.69-1.6 10.39 4.15 13.29 13.89 9.89 24-2.15 6.38-7.2 12.44-14.22 13.36-6.81.91-16.86-3.09-19.99-9.47a19.87 19.87 0 0 1-1.76-10.35 24.07 24.07 0 0 1 .37-2.61c-5.25-5.11-8.71-3.95-11.16-2.1a17.67 17.67 0 0 1-.34 2.64 22.44 22.44 0 0 1-1.9 5.27 19.1 19.1 0 0 1 2.07-.11c2 0 2-.16 2.07-.55a1.5 1.5 0 1 1 2.94.57c-.57 2.9-3.22 2.95-5 3s-3.52.06-4.89 1.67c-1.11 1.31-.86 2.09-.77 2.34.46 1.38 2.58 2.47 3.88 2.77a1.5 1.5 0 1 1-.68 2.92c-1.62-.38-4.86-1.79-5.94-4.47-3.35 2.81-7.52 4.5-12.2 3.66-3.77-.68-8.08-2.11-11.14-4.77-1.43 6.07-2.48 11.35-2.57 14.8C17 71.53 28.92 88.75 62.81 90.12c17.15.6 28.65-5 28.76-5a1.5 1.5 0 0 1 1.65.22c.59-.27 1.17-.54 1.74-.83a36.64 36.64 0 0 1-1.4 5.59 54.88 54.88 0 0 1-4.61 9.9H100V0H28.59c.32 3.7-.29 8.73-1.37 14.44z"/><path class="cls-4" d="M23.83 16.1a17.12 17.12 0 0 1 3.39-1.66C28.3 8.73 28.91 3.7 28.59 0h-3c.41 3.82-.44 9.61-1.76 16.1zM47.2 91.18a87.23 87.23 0 0 0 15.5 1.94q1.42.05 2.78 0c16.35 0 27-5.15 27.43-5.38a1.5 1.5 0 0 0-1.33-2.69c-.11.06-11.61 5.63-28.76 5-33.9-1.3-45.82-18.52-45.51-29.76.08-3.45 1.14-8.73 2.57-14.8a12.68 12.68 0 0 1-1.85-2c-.2-.27-.38-.56-.56-.85-1.72 7.13-3.05 13.44-3.15 17.55-.24 9.91 7.75 24 29.28 30a1.49 1.49 0 0 0 .18.61c1.71 3.08 1.63 6.89 1.38 9.13h3a20 20 0 0 0-.96-8.75z"/><path class="cls-4" d="M67.46 65.36c-.14.05-13.58 5.14-20.26 2.77a1.5 1.5 0 0 0-1 2.83 16.19 16.19 0 0 0 5.35.78c7.54 0 16.52-3.4 17-3.58a1.5 1.5 0 0 0-1.07-2.8zM64.59 12.87a1.5 1.5 0 0 0 2.1-.31c2.57-3.47 8.89-5.56 14.7-4.89C84.45 8 90 9.52 92.47 15.41a1.5 1.5 0 1 0 2.76-1.17c-2.29-5.4-7.08-8.79-13.49-9.55-6.91-.81-14.25 1.75-17.46 6.09a1.5 1.5 0 0 0 .31 2.09zM33.78 13.31c2.28-4.83 4.89-7.13 7.75-6.83C46.24 7 51 14.21 51.67 17a1.5 1.5 0 0 0 1.46 1.15 1.52 1.52 0 0 0 .35 0 1.5 1.5 0 0 0 1.11-1.81c-.84-3.55-6.19-12.17-12.75-12.85C37.56 3 33.95 5.92 31.07 12a1.49 1.49 0 0 0 .13 1.49 19.51 19.51 0 0 1 2.54-.13z"/><path d="M19.88 45.49c3.06 2.65 7.36 4.09 11.14 4.77 4.67.84 8.85-.85 12.2-3.66 0-.09-.08-.18-.11-.28-.4-1.2-.49-3.08 1.33-5.23a7.5 7.5 0 0 1 5.06-2.62 22.44 22.44 0 0 0 1.9-5.27 17.67 17.67 0 0 0 .34-2.64c2.46-1.85 5.91-3 11.16 2.1a24.07 24.07 0 0 0-.37 2.61 19.87 19.87 0 0 0 1.76 10.35C67.42 52 77.47 56 84.23 55.09c7-.91 12.07-7 14.22-13.36 3.4-10.11.5-19.85-9.89-24-5.69-2.27-12.64-2.07-17.69 1.6a20.66 20.66 0 0 0-7.11 10.07c-5.2-4.42-9.3-3.84-12.19-2.28-1.36-8.36-9.57-13.64-17.84-13.74a19.51 19.51 0 0 0-2.54.13 18.32 18.32 0 0 0-4 .93 17.12 17.12 0 0 0-3.39 1.66 16.75 16.75 0 0 0-2.73 2.12 21.59 21.59 0 0 0-5.93 12.62 17.94 17.94 0 0 0 2.29 11.82c.18.29.36.58.56.85a12.68 12.68 0 0 0 1.89 1.98zm47.38-10.95c.89-6.32 4.67-11.29 10.13-13.28a14.15 14.15 0 0 1 14.36 2.63 1.5 1.5 0 1 1-2 2.23 11.16 11.16 0 0 0-11.32-2C74 25.71 71 29.67 70.24 35a1.5 1.5 0 0 1-1.48 1.29h-.21a1.5 1.5 0 0 1-1.29-1.75zM18.69 35h-.25a1.5 1.5 0 0 1-1.23-1.73c1.11-6.59 5-12 10.37-14.39a14.46 14.46 0 0 1 13.81.87 1.5 1.5 0 1 1-1.59 2.54 11.51 11.51 0 0 0-11-.68c-4.47 2-7.7 6.56-8.64 12.15A1.5 1.5 0 0 1 18.69 35z" fill="#0353a7"/><path class="cls-3" d="M20.17 33.75c.94-5.6 4.17-10.14 8.64-12.15a11.51 11.51 0 0 1 11 .68 1.5 1.5 0 1 0 1.59-2.54 14.46 14.46 0 0 0-13.81-.87c-5.38 2.42-9.26 7.8-10.37 14.39A1.5 1.5 0 0 0 18.44 35h.25a1.5 1.5 0 0 0 1.48-1.25zM68.54 36.24h.21A1.5 1.5 0 0 0 70.24 35c.76-5.33 3.76-9.29 8.18-10.92a11.16 11.16 0 0 1 11.32 2 1.5 1.5 0 1 0 2-2.23 14.15 14.15 0 0 0-14.34-2.59c-5.46 2-9.25 7-10.13 13.28a1.5 1.5 0 0 0 1.27 1.7z"/><path d="M44.43 41.09c-1.82 2.15-1.73 4-1.33 5.23 0 .1.07.18.11.28 1.07 2.68 4.32 4.1 5.94 4.47a1.5 1.5 0 1 0 .68-2.92c-1.29-.3-3.42-1.39-3.88-2.77-.08-.25-.34-1 .77-2.34 1.37-1.61 3.08-1.64 4.89-1.67s4.4-.07 5-3a1.5 1.5 0 1 0-2.94-.57c-.08.39-.1.52-2.07.55a19.1 19.1 0 0 0-2.07.11 7.5 7.5 0 0 0-5.1 2.63z" fill="#5eb2fc"/></g><path d="M-32.1-131.92c11.13.18 22.26.41 33.39.54a4.74 4.74 0 0 0 4.53-6c-1.23-3.77-4.42-7.47-8.74-5.73a3.94 3.94 0 0 0-2.35 2.4q-20.29.34-40.59.81c-4.41.1-13.18-1.58-15.66 3.21-1.09 2.1-.14 4.46 2.5 4.25a1.48 1.48 0 0 0 .7-.25c-2 14.88-1.84 30.29-2.15 45.24q-.53 24.86-.43 49.67v6.11a55 55 0 0 0-5.6 0c-3.85 0-7.69 0-11.54.27a3.38 3.38 0 0 0 0 6.76c3.85.22 7.69.23 11.54.27a53.45 53.45 0 0 0 5.66 0q.44 43.39 2.29 86.75.59 14.38 1.32 28.75.35 6.94.73 13.88c.25 4.61 0 9.65 1.67 14a4.63 4.63 0 0 0 2.08 2.36 9 9 0 0 0-3 .89c-1.86.93-1.83 3.41-.62 4.79 2.94 3.34 8.16 3.13 12.36 3.63a149.19 149.19 0 0 0 16.88 1c9.5 0 21.33-.09 29.88-4.7 1.2-.65 1.06-2.88-.41-3.11-9.53-1.49-19.82.31-29.48 0a149.32 149.32 0 0 1-15.4-1.25c-2-.28-4.09-.82-6.11-1.13a3.82 3.82 0 0 0 1.91-2.49c1.92-7.4.05-16.32-.34-23.9q-.65-12.39-1.19-24.78-1.09-24.79-1.79-49.59c-.94-33.4-1.35-66.82-1.66-100.23-.16-17.46.76-35.4-.87-52.83 1.24 0 2.5 0 3.79.07q8.35.19 16.7.34z" fill="#0e2a47" id="señales"/></svg>