<svg xmlns="http://www.w3.org/2000/svg" viewBox="0 0 100 100"><defs><style>.cls-2{fill:#c7ffc7}.cls-4{fill:#202095}.cls-5{fill:#2c8cf4}.cls-7{fill:#00af80}</style></defs><g id="seleccionados_expandidos" data-name="seleccionados expandidos"><path d="M50.69 95.66c-9.36-.39-18.3-3.86-24.92-12.84C21.9 77.51 21.35 71.44 21.6 65c0-.7.06-1.41.11-2.11.08-1.33.18-2.68.29-4 .51-6.55 1-13.33-.89-20-1.17-4.06-2.37-8.59-3.48-13.31A56.84 56.84 0 0 1 7.94 0H0v100h51.57a29.58 29.58 0 0 0-.88-4.34z" fill="#fcbd24"/><path class="cls-2" d="M25 59.1c-.63 8.13-1.22 15.81 3.21 21.88 16.8 22.8 51.2 5.9 64.15-.46a1.5 1.5 0 0 1 1.89.49h.06v.11l.07.11a1.72 1.72 0 0 1-.24 1.8 41.67 41.67 0 0 1-6 17H100V0H15.83c.75 7 4.23 24.61 8.15 38.19 2.08 7.17 1.53 14.09 1.02 20.91zM21.6 65c0-.69.06-1.39.11-2.09-.05.69-.09 1.38-.11 2.09z"/><path d="M12.85 0H7.94a57.34 57.34 0 0 0 9.67 25.71A252 252 0 0 1 12.85 0z" fill="#e2ffe2"/><ellipse class="cls-4" cx="74.21" cy="27.43" rx="2.08" ry="2.64"/><ellipse class="cls-4" cx="39.54" cy="27.43" rx="2.08" ry="2.64"/><path class="cls-5" d="M51.52 54.83h.28c3.22 0 6-2.49 6.26-2.78A1.5 1.5 0 1 0 56 49.87s-2.2 2-4.34 2a2.92 2.92 0 0 1-2.12-1.1c-1.3-1.47-.71-3.38.37-6.37.91-2.53 1.94-5.4 1.23-8.38a1.5 1.5 0 0 0-2.92.69c.5 2.12-.33 4.43-1.14 6.67-1.09 3-2.33 6.5.2 9.37a5.93 5.93 0 0 0 4.24 2.08zM76.77 62.48a1.5 1.5 0 0 0-2 .61c-2.7 5-13.92 6.14-18 6.14a1.39 1.39 0 1 0 0 2.77c.73 0 16.56 0 20.65-7.61a1.37 1.37 0 0 0-.65-1.91z"/><path d="M17.62 25.58c1.11 4.72 2.31 9.31 3.48 13.42 1.9 6.61 1.4 13.35.9 19.9-.1 1.36-.21 2.68-.29 4 0 .7-.08 1.39-.11 2.08-.25 6.42.3 12.45 4.18 17.76 6.62 9 15.56 12.52 24.92 12.91a29.55 29.55 0 0 1 .87 4.34h36.59a41.67 41.67 0 0 0 6-17 1.61 1.61 0 0 0 .24-1.73s0-.11-.07-.15V81h-.06a1.5 1.5 0 0 0-1.89-.5C79.4 86.88 45 103.78 28.19 81c-4.43-6.09-3.83-13.77-3.19-21.9.53-6.82 1.07-13.74-1-20.91C20.06 24.61 16.59 7 15.83 0h-3a250.77 250.77 0 0 0 4.79 25.58z" fill="#69e781"/><path class="cls-7" d="M25.75 12.4a1.5 1.5 0 0 0 1.93-.88c.66-1.77 2.83-2.07 4.53-2 4.48.17 9.21 2.92 9.8 5a1.5 1.5 0 1 0 2.88-.83c-1.11-3.85-7.55-6.94-12.56-7.14-3.76-.15-6.46 1.29-7.46 3.95a1.5 1.5 0 0 0 .88 1.9zM59.46 9.71a1.5 1.5 0 0 0 2.09-.35c1.36-1.91 8.19-4.62 13.73-4.25 3.08.21 5.14 1.27 6.13 3.16a1.5 1.5 0 0 0 2.66-1.39C82.58 4 79.62 2.4 75.49 2.11c-6-.4-14.11 2.32-16.38 5.5a1.5 1.5 0 0 0 .35 2.1z"/></g></svg>